# xmcd
#
# Track frame offsets:
#	150
#	20075
#	43805
#	65898
#	87503
#	104700
#	123180
#	142035
#	166875
#
# Disc length: 2561 seconds
#
# Revision: 1
# Processed by: cddbd v1.5.1PL0 Copyright (c) Steve Scherf et al.
# Submitted via: CDex 1.50Beta5
#
DISCID=8709ff09
DTITLE=近藤房之助 - ROYAL STRAIGHT SOUL III Vol.1
DYEAR=1993
DGENRE=Rock
TTITLE0=近藤房之助/ANY DAY NOW
TTITLE1=永井“ホトケ”隆/LET’S DO IT AGAIN
TTITLE2=Quncho/BOOGIE ON REGGAE WOMAN
TTITLE3=生沢佑一/SEXUAL HEALING
TTITLE4=栗林誠一郎/DRIVE MY CAR
TTITLE5=森友嵐士/DON’T LET ME DOWN
TTITLE6=片山圭司/LET IT BE
TTITLE7=上杉昇/HOTEL CALIFORNIA
TTITLE8=渡辺大之伸/ALWAYS
EXTD=
EXTT0=
EXTT1=
EXTT2=
EXTT3=
EXTT4=
EXTT5=
EXTT6=
EXTT7=
EXTT8=
PLAYORDER=
